<svg width="240" height="340" viewBox="0 0 240 340" fill="none" xmlns="http://www.w3.org/2000/svg">
  <path d="M0 162.5C0 162.5 13.5 160 27 155C40.5 150 63 150 78 155C93 160 108.5 170 120 170C131.5 170 144 162.5 155 155C166 147.5 178 140 190 140C202 140 215.5 150 220 160C224.5 170 220 177.5 220 177.5L220 340H0V162.5Z" fill="#F0F0F0" fill-opacity="0.8"/>
  <path d="M0 240C0 240 10 235 20 230C30 225 45 225 55 230C65 235 75 242.5 80 242.5C85 242.5 90 237.5 95 232.5C100 227.5 107 222.5 115 222.5C123 222.5 130 227.5 135 232.5C140 237.5 145 242.5 150 242.5L150 340H0V240Z" fill="#F0F0F0" fill-opacity="0.6"/>
  <path d="M0 300C0 300 5 297.5 10 295C15 292.5 22.5 292.5 27.5 295C32.5 297.5 37.5 302.5 40 302.5C42.5 302.5 45 300 47.5 297.5C50 295 53.5 292.5 57.5 292.5C61.5 292.5 65 295 67.5 297.5C70 300 72.5 302.5 75 302.5L75 340H0V300Z" fill="#F0F0F0" fill-opacity="0.4"/>
</svg>